<svg width="15" height="15" fill="none" xmlns="http://www.w3.org/2000/svg"><g opacity=".5" fill="#051945"><path d="M7.5 0a5.763 5.763 0 00-5.756 5.756 5.69 5.69 0 001.24 3.566L7.5 15l4.517-5.679a5.693 5.693 0 001.24-3.565A5.763 5.763 0 007.5 0zm3.772 8.73L7.5 13.473 3.73 8.73a4.751 4.751 0 01-1.036-2.975A4.811 4.811 0 017.5.951a4.811 4.811 0 014.806 4.805 4.75 4.75 0 01-1.034 2.974z"/><path d="M7.5 3.309a2.38 2.38 0 00-2.377 2.377A2.38 2.38 0 007.5 8.063a2.38 2.38 0 002.377-2.377A2.38 2.38 0 007.5 3.309zm0 3.803a1.427 1.427 0 010-2.853 1.428 1.428 0 010 2.852z"/></g></svg>