<svg width="13" height="13" fill="none" xmlns="http://www.w3.org/2000/svg"><path d="M11.096 1.904A6.458 6.458 0 006.5 0a6.457 6.457 0 00-4.596 1.904A6.457 6.457 0 000 6.5c0 1.736.676 3.369 1.904 4.596A6.457 6.457 0 006.5 13a6.457 6.457 0 004.596-1.904A6.457 6.457 0 0013 6.5a6.457 6.457 0 00-1.904-4.596zM3.26 11.233A3.282 3.282 0 016.5 8.512a3.282 3.282 0 013.241 2.72A5.706 5.706 0 016.5 12.238a5.706 5.706 0 01-3.241-1.005zm1.174-5.549A2.07 2.07 0 016.5 3.617a2.07 2.07 0 012.067 2.067A2.07 2.07 0 016.5 7.751a2.07 2.07 0 01-2.067-2.067zm5.968 5.02a4.049 4.049 0 00-2.36-2.65 2.828 2.828 0 10-3.082 0 4.05 4.05 0 00-2.36 2.65A5.724 5.724 0 01.762 6.5 5.745 5.745 0 016.5.762 5.745 5.745 0 0112.238 6.5a5.724 5.724 0 01-1.837 4.204z" fill="#051945"/></svg>