<svg width="22" height="22" fill="none" xmlns="http://www.w3.org/2000/svg"><path d="M14.373 21.505a8.684 8.684 0 01-2.456-.422 16.6 16.6 0 01-6.775-4.271 16.6 16.6 0 01-4.225-6.729C.147 7.6.467 5.5 1.833 4.198L4.84 1.137l5.93 5.93L8.407 9.47a1.017 1.017 0 000 1.449l2.676 2.676a1.016 1.016 0 001.449 0l2.401-2.365 5.931 5.931-3.061 3.053a4.693 4.693 0 01-3.429 1.292zM4.84 3.612L3.007 5.445c-.844.834-1.009 2.31-.468 4.143a14.813 14.813 0 003.878 5.995 14.814 14.814 0 006.031 3.832c1.834.54 3.31.376 4.144-.467l1.833-1.834-3.465-3.465-1.21 1.192a2.752 2.752 0 01-3.923 0l-2.659-2.686A2.752 2.752 0 017.16 8.25l1.146-1.173L4.84 3.612z" fill="#084A7A"/></svg>