<svg width="18" height="18" fill="none" xmlns="http://www.w3.org/2000/svg"><path opacity=".5" d="M13.341 10.123c-.676.676-1.732 1.733-2.617 2.623-1.05-.688-2.001-1.447-2.765-2.21-.944-.943-2.124-2.286-2.762-3.237.81-.803 1.869-1.86 2.646-2.635L3.175 0 .846 2.285l-.003.004c-.652.65-.928 1.54-.82 2.642.343 3.523 4.656 8.627 8.468 11.183 2.207 1.48 5.379 2.85 7.255.975a95.854 95.854 0 001.905-1.938l.349-.373-4.659-4.655zM15 16.343c-1.42 1.42-4.237.023-5.92-1.105-3.537-2.372-7.695-7.23-8.005-10.41-.075-.771.098-1.374.514-1.791l1.58-1.551 3.18 3.177C4.736 6.273 4.25 6.752 3.863 7.134l.205.353c.623 1.071 2.066 2.718 3.144 3.795 1.182 1.181 2.396 2.015 3.665 2.81l.297-.3c.652-.658 1.6-1.608 2.168-2.176l3.184 3.182c-.295.304-.788.807-1.527 1.545z" fill="#fff"/></svg>