<svg width="16" height="20" fill="none" xmlns="http://www.w3.org/2000/svg"><path d="M7.675 0C3.443 0 0 3.443 0 7.675c0 1.742.572 3.386 1.654 4.755L7.675 20l6.022-7.572a7.591 7.591 0 001.653-4.753C15.35 3.443 11.907 0 7.675 0zm5.03 11.64l-5.03 6.323-5.028-6.321a6.335 6.335 0 01-1.38-3.967 6.415 6.415 0 016.408-6.407 6.415 6.415 0 016.407 6.407 6.334 6.334 0 01-1.378 3.966z" fill="#051945"/><path d="M7.675 4.412a3.173 3.173 0 00-3.17 3.17 3.173 3.173 0 003.17 3.169 3.173 3.173 0 003.17-3.17 3.173 3.173 0 00-3.17-3.17zm0 5.07a1.904 1.904 0 01-1.901-1.9c0-1.05.853-1.903 1.901-1.903 1.049 0 1.902.853 1.902 1.902a1.904 1.904 0 01-1.902 1.902z" fill="#051945"/></svg>