<svg width="45" height="45" fill="none" xmlns="http://www.w3.org/2000/svg"><path d="M19.178 25.207h1.863v-3.315h2.578v-1.755h-2.578v-1.438h2.8v-1.755h-4.663v8.263zm-4.59-8.19h-2.846v.012h-.004l.023 8.109s2.354-.009 2.9-.018c2.078-.034 3.587-1.735 3.587-4.044 0-2.428-1.47-4.059-3.66-4.059zm.04 6.348c-.23.004-.619.007-.99.01l-.026-4.603h.976c1.667 0 1.797 1.763 1.797 2.304 0 1.561-.883 2.275-1.757 2.29zM7.876 16.92h-2.87v8.311h1.863v-2.853l1.007-.003c1.618 0 2.935-1.223 2.935-2.727 0-1.504-1.317-2.728-2.935-2.728zm0 3.7l-.998.003-.006-1.948h1.004c.58 0 1.071.445 1.071.973 0 .527-.49.972-1.071.972z" fill="#fff"/><path d="M45 34.252h-4.458v-12.14h-2.795V0H9.492L2.795 6.307v5.83H0v17.878h2.795v10.56h29.993L36.349 45 45 34.252zm-8.65 6.39l-3.025-3.758h1.627V24.746h2.795v12.14h1.627l-3.025 3.757zM10.09 3.16v3.71H6.15l3.942-3.712zM2.794 14.77h23.258v12.613H2.795V14.77zM5.59 37.943v-7.928h23.258V12.136H5.59V9.504h7.296V2.632h22.066v19.48h-2.796v12.14h-4.458l2.971 3.691H5.59z" fill="#fff"/></svg>