<svg width="14" height="14" fill="none" xmlns="http://www.w3.org/2000/svg"><path d="M10.376 7.873c-.525.526-1.347 1.348-2.035 2.04a13.635 13.635 0 01-2.15-1.719c-.735-.733-1.653-1.777-2.149-2.517.63-.624 1.454-1.446 2.058-2.05L2.47 0 .658 1.777l-.002.003c-.507.507-.722 1.198-.638 2.055.267 2.74 3.62 6.71 6.586 8.698 1.716 1.152 4.184 2.217 5.643.759 1.06-1.059 1.464-1.49 1.481-1.508l.272-.29-3.624-3.62zm1.29 4.838c-1.105 1.104-3.296.018-4.605-.86-2.75-1.844-5.984-5.623-6.226-8.096-.058-.6.076-1.069.4-1.393l1.23-1.206 2.473 2.471C3.683 4.88 3.305 5.252 3.005 5.55l.16.274c.483.833 1.606 2.114 2.444 2.952.92.919 1.864 1.567 2.85 2.185l.232-.234a559.48 559.48 0 011.686-1.691l2.476 2.474c-.229.237-.612.628-1.187 1.202z" fill="#051945"/></svg>