<svg width="16" height="20" viewBox="0 0 16 20" fill="none" xmlns="http://www.w3.org/2000/svg">
<path d="M7.67509 0C3.44302 0 0 3.44302 0 7.67505C0 9.41748 0.571554 11.0611 1.65398 12.4298L7.67509 20L13.6974 12.4284C14.7786 11.0611 15.3502 9.41744 15.3502 7.67505C15.3502 3.44302 11.9071 0 7.67509 0ZM12.7041 11.6406L7.67509 17.9634L2.64724 11.642C1.74479 10.5009 1.26773 9.12915 1.26773 7.67505C1.26777 4.14207 4.14207 1.26777 7.67509 1.26777C11.2081 1.26777 14.0824 4.14207 14.0824 7.67505C14.0824 9.12915 13.6054 10.5009 12.7041 11.6406Z" fill="#051945"/>
<path d="M7.67528 4.41162C5.92766 4.41162 4.50586 5.83343 4.50586 7.58105C4.50586 9.32868 5.92766 10.7505 7.67528 10.7505C9.4229 10.7505 10.8447 9.32868 10.8447 7.58105C10.8447 5.83343 9.4229 4.41162 7.67528 4.41162ZM7.67528 9.48271C6.62671 9.48271 5.77363 8.62963 5.77363 7.58105C5.77363 6.53248 6.62671 5.67939 7.67528 5.67939C8.72385 5.67939 9.57693 6.53248 9.57693 7.58105C9.57693 8.62963 8.72385 9.48271 7.67528 9.48271Z" fill="#051945"/>
</svg>
