<svg width="18" height="18" viewBox="0 0 18 18" fill="none" xmlns="http://www.w3.org/2000/svg">
<path opacity="0.5" fill-rule="evenodd" clip-rule="evenodd" d="M13.3089 11.5807L18 16.2345L16.2203 18L11.5043 13.3215C10.3219 14.1247 8.89378 14.595 7.35604 14.595C3.30001 14.595 0 11.322 0 7.2975C0 3.27375 3.30001 0 7.35604 0C11.4128 0 14.7128 3.27375 14.7128 7.2975C14.7128 8.8965 14.1912 10.377 13.3089 11.5807ZM7.35684 2.13959C4.49003 2.13959 2.15771 4.45334 2.15771 7.29734C2.15771 10.1413 4.48927 12.4551 7.35684 12.4551C10.2237 12.4551 12.556 10.1413 12.556 7.29734C12.556 4.45334 10.2237 2.13959 7.35684 2.13959Z" fill="#084A7A"/>
</svg>
