<svg width="13" height="13" fill="none" xmlns="http://www.w3.org/2000/svg"><g clip-path="url(#clip0)"><path d="M9.628 7.31c-.488.49-1.25 1.252-1.888 1.895A12.653 12.653 0 015.744 7.61c-.68-.68-1.532-1.65-1.993-2.337.585-.58 1.349-1.344 1.91-1.904L2.291 0 .612 1.65l-.003.003c-.47.47-.67 1.112-.592 1.908.248 2.545 3.36 6.23 6.111 8.077 1.593 1.069 3.882 2.059 5.236.704a65.495 65.495 0 001.374-1.4l.253-.269-3.363-3.362zm1.197 4.493c-1.025 1.025-3.058.017-4.272-.798C4 9.292 1 5.783.776 3.487c-.055-.557.07-.993.37-1.294l1.141-1.12 2.295 2.295C3.418 4.53 3.068 4.876 2.789 5.152l.148.255c.449.774 1.49 1.963 2.268 2.741.853.853 1.73 1.456 2.645 2.029l.214-.217C8.535 9.485 9.22 8.8 9.63 8.39l2.298 2.297c-.213.22-.569.583-1.102 1.116z" fill="#084A7A"/></g><defs><clipPath id="clip0"><path fill="#fff" d="M0 0h13v13H0z"/></clipPath></defs></svg>